<mxfile host="Electron" modified="2024-06-18T07:44:00.615Z" agent="Mozilla/5.0 (Windows NT 10.0; Win64; x64) AppleWebKit/537.36 (KHTML, like Gecko) draw.io/24.1.0 Chrome/120.0.6099.109 Electron/28.1.0 Safari/537.36" etag="-yFRtE9hvcAMhkL-JwdA" version="24.1.0" type="device">
  <diagram id="R2lEEEUBdFMjLlhIrx00" name="Page-1">
    <mxGraphModel dx="2885" dy="2472" grid="1" gridSize="10" guides="1" tooltips="1" connect="1" arrows="1" fold="1" page="1" pageScale="1" pageWidth="850" pageHeight="1100" math="0" shadow="0" extFonts="Permanent Marker^https://fonts.googleapis.com/css?family=Permanent+Marker">
      <root>
        <mxCell id="0" />
        <mxCell id="1" parent="0" />
        <mxCell id="CH3xtRln-XcP3hOCZHpn-20" style="edgeStyle=orthogonalEdgeStyle;rounded=0;orthogonalLoop=1;jettySize=auto;html=1;entryX=0;entryY=0.5;entryDx=0;entryDy=0;" parent="1" source="5M_DBeyCoxtCsIHdB2I5-1" target="CH3xtRln-XcP3hOCZHpn-19" edge="1">
          <mxGeometry relative="1" as="geometry" />
        </mxCell>
        <mxCell id="5M_DBeyCoxtCsIHdB2I5-1" value="&lt;font style=&quot;font-size: 18px;&quot;&gt;头戴控制器IMU数据&lt;/font&gt;" style="rounded=0;whiteSpace=wrap;html=1;" parent="1" vertex="1">
          <mxGeometry x="-270" y="620" width="190" height="60" as="geometry" />
        </mxCell>
        <mxCell id="5M_DBeyCoxtCsIHdB2I5-2" value="&lt;font style=&quot;font-size: 18px;&quot;&gt;X轴方向角度&lt;/font&gt;" style="ellipse;whiteSpace=wrap;html=1;" parent="1" vertex="1">
          <mxGeometry x="-490" y="520" width="130" height="80" as="geometry" />
        </mxCell>
        <mxCell id="5M_DBeyCoxtCsIHdB2I5-3" value="&lt;font style=&quot;font-size: 18px;&quot;&gt;y轴方向角度&lt;/font&gt;" style="ellipse;whiteSpace=wrap;html=1;" parent="1" vertex="1">
          <mxGeometry x="-490" y="610" width="130" height="80" as="geometry" />
        </mxCell>
        <mxCell id="5M_DBeyCoxtCsIHdB2I5-61" style="edgeStyle=orthogonalEdgeStyle;rounded=0;orthogonalLoop=1;jettySize=auto;html=1;" parent="1" source="5M_DBeyCoxtCsIHdB2I5-6" target="5M_DBeyCoxtCsIHdB2I5-48" edge="1">
          <mxGeometry relative="1" as="geometry" />
        </mxCell>
        <mxCell id="5M_DBeyCoxtCsIHdB2I5-6" value="&lt;font style=&quot;font-size: 18px;&quot;&gt;地图数据&lt;/font&gt;" style="rounded=0;whiteSpace=wrap;html=1;" parent="1" vertex="1">
          <mxGeometry x="340" y="-70" width="190" height="60" as="geometry" />
        </mxCell>
        <mxCell id="5M_DBeyCoxtCsIHdB2I5-7" value="&lt;font style=&quot;font-size: 18px;&quot;&gt;地图状态&lt;/font&gt;" style="ellipse;whiteSpace=wrap;html=1;" parent="1" vertex="1">
          <mxGeometry x="200" y="-230" width="130" height="80" as="geometry" />
        </mxCell>
        <mxCell id="5M_DBeyCoxtCsIHdB2I5-8" value="&lt;font style=&quot;font-size: 18px;&quot;&gt;地图名称&lt;/font&gt;" style="ellipse;whiteSpace=wrap;html=1;" parent="1" vertex="1">
          <mxGeometry x="370" y="-230" width="130" height="80" as="geometry" />
        </mxCell>
        <mxCell id="5M_DBeyCoxtCsIHdB2I5-11" value="&lt;font style=&quot;font-size: 18px;&quot;&gt;地图数据&lt;/font&gt;" style="ellipse;whiteSpace=wrap;html=1;" parent="1" vertex="1">
          <mxGeometry x="550" y="-230" width="130" height="80" as="geometry" />
        </mxCell>
        <mxCell id="CH3xtRln-XcP3hOCZHpn-30" style="edgeStyle=orthogonalEdgeStyle;rounded=0;orthogonalLoop=1;jettySize=auto;html=1;entryX=0;entryY=0.5;entryDx=0;entryDy=0;" parent="1" source="5M_DBeyCoxtCsIHdB2I5-14" target="CH3xtRln-XcP3hOCZHpn-28" edge="1">
          <mxGeometry relative="1" as="geometry">
            <mxPoint x="30" y="220" as="targetPoint" />
            <Array as="points">
              <mxPoint x="-195" y="210" />
            </Array>
          </mxGeometry>
        </mxCell>
        <mxCell id="5M_DBeyCoxtCsIHdB2I5-14" value="&lt;span style=&quot;font-size: 18px;&quot;&gt;激光雷达数据&lt;/span&gt;" style="rounded=0;whiteSpace=wrap;html=1;" parent="1" vertex="1">
          <mxGeometry x="-290" y="180" width="190" height="60" as="geometry" />
        </mxCell>
        <mxCell id="5M_DBeyCoxtCsIHdB2I5-15" value="&lt;font style=&quot;font-size: 18px;&quot;&gt;雷达采集时间&lt;/font&gt;" style="ellipse;whiteSpace=wrap;html=1;" parent="1" vertex="1">
          <mxGeometry x="-490" y="120" width="130" height="80" as="geometry" />
        </mxCell>
        <mxCell id="5M_DBeyCoxtCsIHdB2I5-16" value="&lt;font style=&quot;font-size: 18px;&quot;&gt;雷达采集数据&lt;/font&gt;" style="ellipse;whiteSpace=wrap;html=1;" parent="1" vertex="1">
          <mxGeometry x="-490" y="230" width="130" height="80" as="geometry" />
        </mxCell>
        <mxCell id="5M_DBeyCoxtCsIHdB2I5-17" value="" style="endArrow=none;html=1;rounded=0;entryX=1;entryY=0.5;entryDx=0;entryDy=0;exitX=0;exitY=0.5;exitDx=0;exitDy=0;" parent="1" source="5M_DBeyCoxtCsIHdB2I5-14" target="5M_DBeyCoxtCsIHdB2I5-15" edge="1">
          <mxGeometry width="50" height="50" relative="1" as="geometry">
            <mxPoint x="-150" y="330" as="sourcePoint" />
            <mxPoint x="-100" y="280" as="targetPoint" />
          </mxGeometry>
        </mxCell>
        <mxCell id="5M_DBeyCoxtCsIHdB2I5-18" value="" style="endArrow=none;html=1;rounded=0;entryX=0;entryY=0.5;entryDx=0;entryDy=0;exitX=0.972;exitY=0.375;exitDx=0;exitDy=0;exitPerimeter=0;" parent="1" source="5M_DBeyCoxtCsIHdB2I5-16" target="5M_DBeyCoxtCsIHdB2I5-14" edge="1">
          <mxGeometry width="50" height="50" relative="1" as="geometry">
            <mxPoint x="-150" y="330" as="sourcePoint" />
            <mxPoint x="-100" y="280" as="targetPoint" />
          </mxGeometry>
        </mxCell>
        <mxCell id="CH3xtRln-XcP3hOCZHpn-31" style="edgeStyle=orthogonalEdgeStyle;rounded=0;orthogonalLoop=1;jettySize=auto;html=1;entryX=0;entryY=0.5;entryDx=0;entryDy=0;" parent="1" source="5M_DBeyCoxtCsIHdB2I5-21" target="CH3xtRln-XcP3hOCZHpn-28" edge="1">
          <mxGeometry relative="1" as="geometry">
            <Array as="points">
              <mxPoint x="20" y="400" />
              <mxPoint x="20" y="210" />
            </Array>
          </mxGeometry>
        </mxCell>
        <mxCell id="5M_DBeyCoxtCsIHdB2I5-21" value="&lt;span style=&quot;font-size: 18px;&quot;&gt;摄像头数据&lt;/span&gt;" style="rounded=0;whiteSpace=wrap;html=1;" parent="1" vertex="1">
          <mxGeometry x="-290" y="370" width="190" height="60" as="geometry" />
        </mxCell>
        <mxCell id="5M_DBeyCoxtCsIHdB2I5-22" value="&lt;font style=&quot;font-size: 18px;&quot;&gt;摄像头采集时间&lt;/font&gt;" style="ellipse;whiteSpace=wrap;html=1;" parent="1" vertex="1">
          <mxGeometry x="-490" y="320" width="130" height="80" as="geometry" />
        </mxCell>
        <mxCell id="5M_DBeyCoxtCsIHdB2I5-23" value="&lt;font style=&quot;font-size: 18px;&quot;&gt;摄像头采集数据&lt;/font&gt;" style="ellipse;whiteSpace=wrap;html=1;" parent="1" vertex="1">
          <mxGeometry x="-490" y="420" width="130" height="80" as="geometry" />
        </mxCell>
        <mxCell id="5M_DBeyCoxtCsIHdB2I5-24" value="" style="endArrow=none;html=1;rounded=0;entryX=1;entryY=0.5;entryDx=0;entryDy=0;exitX=0;exitY=0.5;exitDx=0;exitDy=0;" parent="1" source="5M_DBeyCoxtCsIHdB2I5-21" target="5M_DBeyCoxtCsIHdB2I5-22" edge="1">
          <mxGeometry width="50" height="50" relative="1" as="geometry">
            <mxPoint x="-160" y="550" as="sourcePoint" />
            <mxPoint x="-110" y="500" as="targetPoint" />
          </mxGeometry>
        </mxCell>
        <mxCell id="5M_DBeyCoxtCsIHdB2I5-25" value="" style="endArrow=none;html=1;rounded=0;entryX=0;entryY=0.5;entryDx=0;entryDy=0;exitX=0.972;exitY=0.375;exitDx=0;exitDy=0;exitPerimeter=0;" parent="1" source="5M_DBeyCoxtCsIHdB2I5-23" target="5M_DBeyCoxtCsIHdB2I5-21" edge="1">
          <mxGeometry width="50" height="50" relative="1" as="geometry">
            <mxPoint x="-160" y="550" as="sourcePoint" />
            <mxPoint x="-110" y="500" as="targetPoint" />
          </mxGeometry>
        </mxCell>
        <mxCell id="8XETLYv3vKkjpiccnSqC-25" style="edgeStyle=orthogonalEdgeStyle;rounded=0;orthogonalLoop=1;jettySize=auto;html=1;entryX=1;entryY=0.5;entryDx=0;entryDy=0;" edge="1" parent="1" source="5M_DBeyCoxtCsIHdB2I5-26" target="8XETLYv3vKkjpiccnSqC-15">
          <mxGeometry relative="1" as="geometry" />
        </mxCell>
        <mxCell id="5M_DBeyCoxtCsIHdB2I5-26" value="&lt;span style=&quot;font-size: 18px;&quot;&gt;障碍物推测数据&lt;/span&gt;" style="rounded=0;whiteSpace=wrap;html=1;" parent="1" vertex="1">
          <mxGeometry x="1080" y="470" width="190" height="60" as="geometry" />
        </mxCell>
        <mxCell id="5M_DBeyCoxtCsIHdB2I5-27" value="&lt;span style=&quot;font-size: 18px;&quot;&gt;障碍物方向&lt;/span&gt;" style="ellipse;whiteSpace=wrap;html=1;" parent="1" vertex="1">
          <mxGeometry x="1340" y="370" width="130" height="80" as="geometry" />
        </mxCell>
        <mxCell id="5M_DBeyCoxtCsIHdB2I5-28" value="&lt;font style=&quot;font-size: 18px;&quot;&gt;障碍物距离&lt;/font&gt;" style="ellipse;whiteSpace=wrap;html=1;" parent="1" vertex="1">
          <mxGeometry x="1340" y="460" width="130" height="80" as="geometry" />
        </mxCell>
        <mxCell id="5M_DBeyCoxtCsIHdB2I5-29" value="" style="endArrow=none;html=1;rounded=0;entryX=0;entryY=0.5;entryDx=0;entryDy=0;exitX=1;exitY=0.5;exitDx=0;exitDy=0;" parent="1" source="5M_DBeyCoxtCsIHdB2I5-26" target="5M_DBeyCoxtCsIHdB2I5-27" edge="1">
          <mxGeometry width="50" height="50" relative="1" as="geometry">
            <mxPoint x="1210" y="520" as="sourcePoint" />
            <mxPoint x="1260" y="470" as="targetPoint" />
          </mxGeometry>
        </mxCell>
        <mxCell id="5M_DBeyCoxtCsIHdB2I5-30" value="" style="endArrow=none;html=1;rounded=0;entryX=1;entryY=0.5;entryDx=0;entryDy=0;exitX=0;exitY=0.5;exitDx=0;exitDy=0;" parent="1" source="5M_DBeyCoxtCsIHdB2I5-28" target="5M_DBeyCoxtCsIHdB2I5-26" edge="1">
          <mxGeometry width="50" height="50" relative="1" as="geometry">
            <mxPoint x="1476" y="360" as="sourcePoint" />
            <mxPoint x="1260" y="470" as="targetPoint" />
          </mxGeometry>
        </mxCell>
        <mxCell id="5M_DBeyCoxtCsIHdB2I5-31" value="&lt;font style=&quot;font-size: 18px;&quot;&gt;障碍物相对速度&lt;/font&gt;" style="ellipse;whiteSpace=wrap;html=1;" parent="1" vertex="1">
          <mxGeometry x="1340" y="570" width="130" height="80" as="geometry" />
        </mxCell>
        <mxCell id="5M_DBeyCoxtCsIHdB2I5-32" value="" style="endArrow=none;html=1;rounded=0;exitX=0;exitY=0.5;exitDx=0;exitDy=0;entryX=1;entryY=0.5;entryDx=0;entryDy=0;" parent="1" source="5M_DBeyCoxtCsIHdB2I5-31" target="5M_DBeyCoxtCsIHdB2I5-26" edge="1">
          <mxGeometry width="50" height="50" relative="1" as="geometry">
            <mxPoint x="1016" y="380" as="sourcePoint" />
            <mxPoint x="1090" y="340" as="targetPoint" />
          </mxGeometry>
        </mxCell>
        <mxCell id="5M_DBeyCoxtCsIHdB2I5-33" value="&lt;font style=&quot;font-size: 18px;&quot;&gt;操纵杆控制舵机指令&lt;/font&gt;" style="rounded=0;whiteSpace=wrap;html=1;" parent="1" vertex="1">
          <mxGeometry x="338.75" y="950" width="190" height="60" as="geometry" />
        </mxCell>
        <mxCell id="5M_DBeyCoxtCsIHdB2I5-34" value="&lt;span style=&quot;font-size: 18px;&quot;&gt;舵机A转动角度&lt;/span&gt;" style="ellipse;whiteSpace=wrap;html=1;" parent="1" vertex="1">
          <mxGeometry x="290" y="1110" width="130" height="80" as="geometry" />
        </mxCell>
        <mxCell id="5M_DBeyCoxtCsIHdB2I5-35" value="&lt;span style=&quot;font-size: 18px;&quot;&gt;舵机B转动角度&lt;/span&gt;" style="ellipse;whiteSpace=wrap;html=1;" parent="1" vertex="1">
          <mxGeometry x="443.75" y="1110" width="130" height="80" as="geometry" />
        </mxCell>
        <mxCell id="CH3xtRln-XcP3hOCZHpn-38" style="edgeStyle=orthogonalEdgeStyle;rounded=0;orthogonalLoop=1;jettySize=auto;html=1;entryX=0.5;entryY=0;entryDx=0;entryDy=0;" parent="1" source="5M_DBeyCoxtCsIHdB2I5-48" target="CH3xtRln-XcP3hOCZHpn-35" edge="1">
          <mxGeometry relative="1" as="geometry">
            <Array as="points">
              <mxPoint x="435" y="380" />
              <mxPoint x="435" y="380" />
            </Array>
          </mxGeometry>
        </mxCell>
        <mxCell id="5M_DBeyCoxtCsIHdB2I5-48" value="&lt;span style=&quot;font-size: 18px;&quot;&gt;存储&lt;/span&gt;" style="rhombus;whiteSpace=wrap;html=1;" parent="1" vertex="1">
          <mxGeometry x="370" y="70" width="130" height="80" as="geometry" />
        </mxCell>
        <mxCell id="5M_DBeyCoxtCsIHdB2I5-54" value="" style="endArrow=none;html=1;rounded=0;entryX=1;entryY=0.5;entryDx=0;entryDy=0;exitX=0;exitY=0.5;exitDx=0;exitDy=0;" parent="1" source="5M_DBeyCoxtCsIHdB2I5-1" target="5M_DBeyCoxtCsIHdB2I5-2" edge="1">
          <mxGeometry width="50" height="50" relative="1" as="geometry">
            <mxPoint x="-340" y="650" as="sourcePoint" />
            <mxPoint x="-290" y="600" as="targetPoint" />
          </mxGeometry>
        </mxCell>
        <mxCell id="5M_DBeyCoxtCsIHdB2I5-55" value="" style="endArrow=none;html=1;rounded=0;entryX=0;entryY=0.5;entryDx=0;entryDy=0;exitX=1;exitY=0.5;exitDx=0;exitDy=0;" parent="1" source="5M_DBeyCoxtCsIHdB2I5-3" target="5M_DBeyCoxtCsIHdB2I5-1" edge="1">
          <mxGeometry width="50" height="50" relative="1" as="geometry">
            <mxPoint x="-330" y="730" as="sourcePoint" />
            <mxPoint x="-270" y="650" as="targetPoint" />
          </mxGeometry>
        </mxCell>
        <mxCell id="5M_DBeyCoxtCsIHdB2I5-57" value="" style="endArrow=none;html=1;rounded=0;entryX=0.5;entryY=1;entryDx=0;entryDy=0;exitX=0.5;exitY=0;exitDx=0;exitDy=0;" parent="1" source="5M_DBeyCoxtCsIHdB2I5-6" target="5M_DBeyCoxtCsIHdB2I5-11" edge="1">
          <mxGeometry width="50" height="50" relative="1" as="geometry">
            <mxPoint x="450" y="-80" as="sourcePoint" />
            <mxPoint x="260" y="-60" as="targetPoint" />
            <Array as="points">
              <mxPoint x="540" y="-120" />
            </Array>
          </mxGeometry>
        </mxCell>
        <mxCell id="5M_DBeyCoxtCsIHdB2I5-58" value="" style="endArrow=none;html=1;rounded=0;entryX=0.5;entryY=1;entryDx=0;entryDy=0;exitX=0.5;exitY=0;exitDx=0;exitDy=0;" parent="1" source="5M_DBeyCoxtCsIHdB2I5-6" target="5M_DBeyCoxtCsIHdB2I5-8" edge="1">
          <mxGeometry width="50" height="50" relative="1" as="geometry">
            <mxPoint x="210" y="-10" as="sourcePoint" />
            <mxPoint x="260" y="-60" as="targetPoint" />
          </mxGeometry>
        </mxCell>
        <mxCell id="5M_DBeyCoxtCsIHdB2I5-59" value="" style="endArrow=none;html=1;rounded=0;entryX=0.5;entryY=0;entryDx=0;entryDy=0;exitX=0.5;exitY=1;exitDx=0;exitDy=0;" parent="1" source="5M_DBeyCoxtCsIHdB2I5-7" target="5M_DBeyCoxtCsIHdB2I5-6" edge="1">
          <mxGeometry width="50" height="50" relative="1" as="geometry">
            <mxPoint x="210" y="-10" as="sourcePoint" />
            <mxPoint x="260" y="-60" as="targetPoint" />
          </mxGeometry>
        </mxCell>
        <mxCell id="8XETLYv3vKkjpiccnSqC-13" style="edgeStyle=orthogonalEdgeStyle;rounded=0;orthogonalLoop=1;jettySize=auto;html=1;entryX=0;entryY=0.5;entryDx=0;entryDy=0;" edge="1" parent="1" source="5M_DBeyCoxtCsIHdB2I5-63" target="8XETLYv3vKkjpiccnSqC-12">
          <mxGeometry relative="1" as="geometry" />
        </mxCell>
        <mxCell id="5M_DBeyCoxtCsIHdB2I5-63" value="&lt;span style=&quot;font-size: 18px;&quot;&gt;计算&lt;/span&gt;" style="rhombus;whiteSpace=wrap;html=1;" parent="1" vertex="1">
          <mxGeometry x="528.75" y="320" width="120" height="80" as="geometry" />
        </mxCell>
        <mxCell id="5M_DBeyCoxtCsIHdB2I5-68" style="edgeStyle=orthogonalEdgeStyle;rounded=0;orthogonalLoop=1;jettySize=auto;html=1;entryX=0.5;entryY=1;entryDx=0;entryDy=0;exitX=0.5;exitY=0;exitDx=0;exitDy=0;" parent="1" source="5M_DBeyCoxtCsIHdB2I5-66" target="5M_DBeyCoxtCsIHdB2I5-67" edge="1">
          <mxGeometry relative="1" as="geometry">
            <Array as="points" />
          </mxGeometry>
        </mxCell>
        <mxCell id="5M_DBeyCoxtCsIHdB2I5-66" value="&lt;font style=&quot;font-size: 18px;&quot;&gt;用户&lt;/font&gt;" style="rounded=0;whiteSpace=wrap;html=1;" parent="1" vertex="1">
          <mxGeometry x="-240" y="840" width="120" height="60" as="geometry" />
        </mxCell>
        <mxCell id="5M_DBeyCoxtCsIHdB2I5-69" style="edgeStyle=orthogonalEdgeStyle;rounded=0;orthogonalLoop=1;jettySize=auto;html=1;exitX=0.5;exitY=0;exitDx=0;exitDy=0;" parent="1" source="5M_DBeyCoxtCsIHdB2I5-67" target="5M_DBeyCoxtCsIHdB2I5-1" edge="1">
          <mxGeometry relative="1" as="geometry">
            <mxPoint x="-180" y="689.9999999999995" as="targetPoint" />
            <Array as="points">
              <mxPoint x="-180" y="720" />
              <mxPoint x="-180" y="720" />
            </Array>
          </mxGeometry>
        </mxCell>
        <mxCell id="5M_DBeyCoxtCsIHdB2I5-67" value="&lt;font style=&quot;font-size: 18px;&quot;&gt;控制&lt;/font&gt;" style="rhombus;whiteSpace=wrap;html=1;" parent="1" vertex="1">
          <mxGeometry x="-245" y="720" width="130" height="80" as="geometry" />
        </mxCell>
        <mxCell id="5M_DBeyCoxtCsIHdB2I5-73" style="edgeStyle=orthogonalEdgeStyle;rounded=0;orthogonalLoop=1;jettySize=auto;html=1;entryX=0.5;entryY=0;entryDx=0;entryDy=0;" parent="1" edge="1">
          <mxGeometry relative="1" as="geometry">
            <mxPoint x="434.38" y="880" as="sourcePoint" />
            <mxPoint x="434.38" y="950" as="targetPoint" />
          </mxGeometry>
        </mxCell>
        <mxCell id="5M_DBeyCoxtCsIHdB2I5-71" value="&lt;span style=&quot;font-size: 18px;&quot;&gt;生成&lt;/span&gt;" style="rhombus;whiteSpace=wrap;html=1;" parent="1" vertex="1">
          <mxGeometry x="370" y="800" width="130" height="80" as="geometry" />
        </mxCell>
        <mxCell id="5M_DBeyCoxtCsIHdB2I5-74" value="" style="endArrow=none;html=1;rounded=0;exitX=0.5;exitY=0;exitDx=0;exitDy=0;entryX=0.5;entryY=1;entryDx=0;entryDy=0;" parent="1" source="5M_DBeyCoxtCsIHdB2I5-35" target="5M_DBeyCoxtCsIHdB2I5-33" edge="1">
          <mxGeometry width="50" height="50" relative="1" as="geometry">
            <mxPoint x="113.75" y="800" as="sourcePoint" />
            <mxPoint x="163.75" y="750" as="targetPoint" />
          </mxGeometry>
        </mxCell>
        <mxCell id="5M_DBeyCoxtCsIHdB2I5-75" value="" style="endArrow=none;html=1;rounded=0;entryX=0.5;entryY=1;entryDx=0;entryDy=0;exitX=0.5;exitY=0;exitDx=0;exitDy=0;" parent="1" target="5M_DBeyCoxtCsIHdB2I5-33" edge="1">
          <mxGeometry width="50" height="50" relative="1" as="geometry">
            <mxPoint x="358.75" y="1110" as="sourcePoint" />
            <mxPoint x="163.75" y="750" as="targetPoint" />
          </mxGeometry>
        </mxCell>
        <mxCell id="CH3xtRln-XcP3hOCZHpn-21" style="edgeStyle=orthogonalEdgeStyle;rounded=0;orthogonalLoop=1;jettySize=auto;html=1;entryX=0;entryY=0.5;entryDx=0;entryDy=0;" parent="1" source="CH3xtRln-XcP3hOCZHpn-1" target="CH3xtRln-XcP3hOCZHpn-19" edge="1">
          <mxGeometry relative="1" as="geometry">
            <mxPoint y="710" as="targetPoint" />
          </mxGeometry>
        </mxCell>
        <mxCell id="CH3xtRln-XcP3hOCZHpn-1" value="&lt;font style=&quot;font-size: 18px;&quot;&gt;手机端控制指令&lt;/font&gt;" style="rounded=0;whiteSpace=wrap;html=1;" parent="1" vertex="1">
          <mxGeometry x="-270" y="1000" width="190" height="60" as="geometry" />
        </mxCell>
        <mxCell id="CH3xtRln-XcP3hOCZHpn-2" value="&lt;font style=&quot;font-size: 18px;&quot;&gt;运动控制指令&lt;/font&gt;" style="ellipse;whiteSpace=wrap;html=1;" parent="1" vertex="1">
          <mxGeometry x="-500" y="920" width="130" height="80" as="geometry" />
        </mxCell>
        <mxCell id="CH3xtRln-XcP3hOCZHpn-3" value="&lt;font style=&quot;font-size: 18px;&quot;&gt;模式切换指令&lt;/font&gt;" style="ellipse;whiteSpace=wrap;html=1;" parent="1" vertex="1">
          <mxGeometry x="-500" y="1020" width="130" height="80" as="geometry" />
        </mxCell>
        <mxCell id="CH3xtRln-XcP3hOCZHpn-4" value="" style="endArrow=none;html=1;rounded=0;entryX=1;entryY=0.5;entryDx=0;entryDy=0;exitX=0;exitY=0.5;exitDx=0;exitDy=0;" parent="1" source="CH3xtRln-XcP3hOCZHpn-1" target="CH3xtRln-XcP3hOCZHpn-2" edge="1">
          <mxGeometry width="50" height="50" relative="1" as="geometry">
            <mxPoint x="-340" y="1030" as="sourcePoint" />
            <mxPoint x="-339.99999999999454" y="980" as="targetPoint" />
          </mxGeometry>
        </mxCell>
        <mxCell id="CH3xtRln-XcP3hOCZHpn-5" value="" style="endArrow=none;html=1;rounded=0;entryX=0;entryY=0.5;entryDx=0;entryDy=0;exitX=1;exitY=0.5;exitDx=0;exitDy=0;" parent="1" source="CH3xtRln-XcP3hOCZHpn-3" target="CH3xtRln-XcP3hOCZHpn-1" edge="1">
          <mxGeometry width="50" height="50" relative="1" as="geometry">
            <mxPoint x="-330" y="1110" as="sourcePoint" />
            <mxPoint x="-270" y="1030" as="targetPoint" />
          </mxGeometry>
        </mxCell>
        <mxCell id="CH3xtRln-XcP3hOCZHpn-6" style="edgeStyle=orthogonalEdgeStyle;rounded=0;orthogonalLoop=1;jettySize=auto;html=1;entryX=0.5;entryY=1;entryDx=0;entryDy=0;exitX=0.5;exitY=0;exitDx=0;exitDy=0;" parent="1" source="CH3xtRln-XcP3hOCZHpn-7" target="CH3xtRln-XcP3hOCZHpn-9" edge="1">
          <mxGeometry relative="1" as="geometry">
            <Array as="points" />
          </mxGeometry>
        </mxCell>
        <mxCell id="CH3xtRln-XcP3hOCZHpn-7" value="&lt;font style=&quot;font-size: 18px;&quot;&gt;用户亲属&lt;/font&gt;" style="rounded=0;whiteSpace=wrap;html=1;" parent="1" vertex="1">
          <mxGeometry x="-240" y="1230" width="120" height="60" as="geometry" />
        </mxCell>
        <mxCell id="CH3xtRln-XcP3hOCZHpn-8" style="edgeStyle=orthogonalEdgeStyle;rounded=0;orthogonalLoop=1;jettySize=auto;html=1;exitX=0.5;exitY=0;exitDx=0;exitDy=0;" parent="1" source="CH3xtRln-XcP3hOCZHpn-9" target="CH3xtRln-XcP3hOCZHpn-1" edge="1">
          <mxGeometry relative="1" as="geometry">
            <mxPoint x="-180" y="1069.9999999999995" as="targetPoint" />
            <Array as="points">
              <mxPoint x="-180" y="1100" />
              <mxPoint x="-180" y="1100" />
            </Array>
          </mxGeometry>
        </mxCell>
        <mxCell id="CH3xtRln-XcP3hOCZHpn-9" value="&lt;font style=&quot;font-size: 18px;&quot;&gt;控制&lt;/font&gt;" style="rhombus;whiteSpace=wrap;html=1;" parent="1" vertex="1">
          <mxGeometry x="-245" y="1110" width="130" height="80" as="geometry" />
        </mxCell>
        <mxCell id="CH3xtRln-XcP3hOCZHpn-23" style="edgeStyle=orthogonalEdgeStyle;rounded=0;orthogonalLoop=1;jettySize=auto;html=1;entryX=0;entryY=0.5;entryDx=0;entryDy=0;" parent="1" source="CH3xtRln-XcP3hOCZHpn-19" target="CH3xtRln-XcP3hOCZHpn-22" edge="1">
          <mxGeometry relative="1" as="geometry" />
        </mxCell>
        <mxCell id="CH3xtRln-XcP3hOCZHpn-19" value="&lt;font style=&quot;font-size: 18px;&quot;&gt;组成&lt;/font&gt;" style="rhombus;whiteSpace=wrap;html=1;" parent="1" vertex="1">
          <mxGeometry x="38.75" y="800" width="130" height="80" as="geometry" />
        </mxCell>
        <mxCell id="CH3xtRln-XcP3hOCZHpn-26" style="edgeStyle=orthogonalEdgeStyle;rounded=0;orthogonalLoop=1;jettySize=auto;html=1;entryX=0;entryY=0.5;entryDx=0;entryDy=0;" parent="1" source="CH3xtRln-XcP3hOCZHpn-22" edge="1">
          <mxGeometry relative="1" as="geometry">
            <mxPoint x="373.75" y="840" as="targetPoint" />
          </mxGeometry>
        </mxCell>
        <mxCell id="CH3xtRln-XcP3hOCZHpn-22" value="&lt;font style=&quot;font-size: 18px;&quot;&gt;用户指令&lt;/font&gt;" style="rounded=0;whiteSpace=wrap;html=1;" parent="1" vertex="1">
          <mxGeometry x="218.75" y="810" width="120" height="60" as="geometry" />
        </mxCell>
        <mxCell id="CH3xtRln-XcP3hOCZHpn-27" style="edgeStyle=orthogonalEdgeStyle;rounded=0;orthogonalLoop=1;jettySize=auto;html=1;entryX=0;entryY=0.5;entryDx=0;entryDy=0;" parent="1" source="CH3xtRln-XcP3hOCZHpn-28" target="CH3xtRln-XcP3hOCZHpn-29" edge="1">
          <mxGeometry relative="1" as="geometry" />
        </mxCell>
        <mxCell id="CH3xtRln-XcP3hOCZHpn-28" value="&lt;font style=&quot;font-size: 18px;&quot;&gt;组成&lt;/font&gt;" style="rhombus;whiteSpace=wrap;html=1;" parent="1" vertex="1">
          <mxGeometry x="60" y="170" width="130" height="80" as="geometry" />
        </mxCell>
        <mxCell id="CH3xtRln-XcP3hOCZHpn-32" style="edgeStyle=orthogonalEdgeStyle;rounded=0;orthogonalLoop=1;jettySize=auto;html=1;entryX=0;entryY=0.5;entryDx=0;entryDy=0;" parent="1" source="CH3xtRln-XcP3hOCZHpn-29" target="5M_DBeyCoxtCsIHdB2I5-63" edge="1">
          <mxGeometry relative="1" as="geometry">
            <mxPoint x="660" y="210" as="targetPoint" />
            <Array as="points">
              <mxPoint x="460" y="210" />
              <mxPoint x="460" y="360" />
            </Array>
          </mxGeometry>
        </mxCell>
        <mxCell id="CH3xtRln-XcP3hOCZHpn-29" value="&lt;font style=&quot;font-size: 18px;&quot;&gt;环境数据&lt;/font&gt;" style="rounded=0;whiteSpace=wrap;html=1;" parent="1" vertex="1">
          <mxGeometry x="230" y="180" width="120" height="60" as="geometry" />
        </mxCell>
        <mxCell id="CH3xtRln-XcP3hOCZHpn-36" style="edgeStyle=orthogonalEdgeStyle;rounded=0;orthogonalLoop=1;jettySize=auto;html=1;" parent="1" source="CH3xtRln-XcP3hOCZHpn-35" target="5M_DBeyCoxtCsIHdB2I5-71" edge="1">
          <mxGeometry relative="1" as="geometry" />
        </mxCell>
        <mxCell id="CH3xtRln-XcP3hOCZHpn-37" style="edgeStyle=orthogonalEdgeStyle;rounded=0;orthogonalLoop=1;jettySize=auto;html=1;entryX=0.5;entryY=1;entryDx=0;entryDy=0;" parent="1" source="CH3xtRln-XcP3hOCZHpn-35" target="5M_DBeyCoxtCsIHdB2I5-63" edge="1">
          <mxGeometry relative="1" as="geometry" />
        </mxCell>
        <mxCell id="CH3xtRln-XcP3hOCZHpn-35" value="&lt;font style=&quot;font-size: 18px;&quot;&gt;微型计算机&lt;/font&gt;" style="rounded=0;whiteSpace=wrap;html=1;" parent="1" vertex="1">
          <mxGeometry x="375" y="470" width="120" height="60" as="geometry" />
        </mxCell>
        <mxCell id="8XETLYv3vKkjpiccnSqC-1" value="&lt;font style=&quot;font-size: 18px;&quot;&gt;z轴方向角度&lt;/font&gt;" style="ellipse;whiteSpace=wrap;html=1;" vertex="1" parent="1">
          <mxGeometry x="-490" y="700" width="130" height="80" as="geometry" />
        </mxCell>
        <mxCell id="8XETLYv3vKkjpiccnSqC-5" value="" style="endArrow=none;html=1;rounded=0;entryX=0;entryY=0.5;entryDx=0;entryDy=0;exitX=1;exitY=0.5;exitDx=0;exitDy=0;" edge="1" parent="1" source="8XETLYv3vKkjpiccnSqC-1" target="5M_DBeyCoxtCsIHdB2I5-1">
          <mxGeometry width="50" height="50" relative="1" as="geometry">
            <mxPoint x="-510" y="850" as="sourcePoint" />
            <mxPoint x="-460" y="800" as="targetPoint" />
          </mxGeometry>
        </mxCell>
        <mxCell id="8XETLYv3vKkjpiccnSqC-7" style="edgeStyle=orthogonalEdgeStyle;rounded=0;orthogonalLoop=1;jettySize=auto;html=1;entryX=0;entryY=0.5;entryDx=0;entryDy=0;" edge="1" parent="1" source="8XETLYv3vKkjpiccnSqC-6" target="CH3xtRln-XcP3hOCZHpn-28">
          <mxGeometry relative="1" as="geometry">
            <Array as="points">
              <mxPoint x="20" y="-50" />
              <mxPoint x="20" y="210" />
            </Array>
          </mxGeometry>
        </mxCell>
        <mxCell id="8XETLYv3vKkjpiccnSqC-6" value="&lt;font style=&quot;font-size: 18px;&quot;&gt;轮椅IMU数据&lt;/font&gt;" style="rounded=0;whiteSpace=wrap;html=1;" vertex="1" parent="1">
          <mxGeometry x="-290" y="-80" width="190" height="60" as="geometry" />
        </mxCell>
        <mxCell id="8XETLYv3vKkjpiccnSqC-8" value="&lt;font style=&quot;font-size: 18px;&quot;&gt;X方向加速度&lt;/font&gt;" style="ellipse;whiteSpace=wrap;html=1;" vertex="1" parent="1">
          <mxGeometry x="-490" y="-135" width="130" height="80" as="geometry" />
        </mxCell>
        <mxCell id="8XETLYv3vKkjpiccnSqC-9" value="&lt;span style=&quot;font-size: 18px;&quot;&gt;三方向角度&lt;/span&gt;" style="ellipse;whiteSpace=wrap;html=1;" vertex="1" parent="1">
          <mxGeometry x="-490" y="-25" width="130" height="80" as="geometry" />
        </mxCell>
        <mxCell id="8XETLYv3vKkjpiccnSqC-10" value="" style="endArrow=none;html=1;rounded=0;entryX=1;entryY=0.5;entryDx=0;entryDy=0;exitX=0;exitY=0.5;exitDx=0;exitDy=0;" edge="1" parent="1" target="8XETLYv3vKkjpiccnSqC-8">
          <mxGeometry width="50" height="50" relative="1" as="geometry">
            <mxPoint x="-290" y="-45" as="sourcePoint" />
            <mxPoint x="-100" y="25" as="targetPoint" />
          </mxGeometry>
        </mxCell>
        <mxCell id="8XETLYv3vKkjpiccnSqC-11" value="" style="endArrow=none;html=1;rounded=0;entryX=0;entryY=0.5;entryDx=0;entryDy=0;exitX=0.972;exitY=0.375;exitDx=0;exitDy=0;exitPerimeter=0;" edge="1" parent="1" source="8XETLYv3vKkjpiccnSqC-9">
          <mxGeometry width="50" height="50" relative="1" as="geometry">
            <mxPoint x="-150" y="75" as="sourcePoint" />
            <mxPoint x="-290" y="-45" as="targetPoint" />
          </mxGeometry>
        </mxCell>
        <mxCell id="8XETLYv3vKkjpiccnSqC-14" style="edgeStyle=orthogonalEdgeStyle;rounded=0;orthogonalLoop=1;jettySize=auto;html=1;entryX=1;entryY=0.5;entryDx=0;entryDy=0;" edge="1" parent="1" source="8XETLYv3vKkjpiccnSqC-12" target="5M_DBeyCoxtCsIHdB2I5-71">
          <mxGeometry relative="1" as="geometry">
            <mxPoint x="900" y="850" as="targetPoint" />
            <Array as="points">
              <mxPoint x="770" y="840" />
            </Array>
          </mxGeometry>
        </mxCell>
        <mxCell id="8XETLYv3vKkjpiccnSqC-12" value="&lt;font style=&quot;font-size: 18px;&quot;&gt;决策辅助数据&lt;/font&gt;" style="rounded=0;whiteSpace=wrap;html=1;" vertex="1" parent="1">
          <mxGeometry x="710" y="330" width="120" height="60" as="geometry" />
        </mxCell>
        <mxCell id="8XETLYv3vKkjpiccnSqC-16" style="edgeStyle=orthogonalEdgeStyle;rounded=0;orthogonalLoop=1;jettySize=auto;html=1;entryX=1;entryY=0.5;entryDx=0;entryDy=0;" edge="1" parent="1" source="8XETLYv3vKkjpiccnSqC-15" target="8XETLYv3vKkjpiccnSqC-12">
          <mxGeometry relative="1" as="geometry" />
        </mxCell>
        <mxCell id="8XETLYv3vKkjpiccnSqC-15" value="&lt;span style=&quot;font-size: 18px;&quot;&gt;组成&lt;/span&gt;" style="rhombus;whiteSpace=wrap;html=1;" vertex="1" parent="1">
          <mxGeometry x="860" y="320" width="120" height="80" as="geometry" />
        </mxCell>
        <mxCell id="8XETLYv3vKkjpiccnSqC-24" style="edgeStyle=orthogonalEdgeStyle;rounded=0;orthogonalLoop=1;jettySize=auto;html=1;entryX=1;entryY=0.5;entryDx=0;entryDy=0;" edge="1" parent="1" source="8XETLYv3vKkjpiccnSqC-17" target="8XETLYv3vKkjpiccnSqC-15">
          <mxGeometry relative="1" as="geometry" />
        </mxCell>
        <mxCell id="8XETLYv3vKkjpiccnSqC-17" value="&lt;span style=&quot;font-size: 18px;&quot;&gt;跟随目标推测数据&lt;/span&gt;" style="rounded=0;whiteSpace=wrap;html=1;" vertex="1" parent="1">
          <mxGeometry x="1080" y="220" width="190" height="60" as="geometry" />
        </mxCell>
        <mxCell id="8XETLYv3vKkjpiccnSqC-18" value="&lt;span style=&quot;font-size: 18px;&quot;&gt;目标X方向距离&lt;/span&gt;" style="ellipse;whiteSpace=wrap;html=1;" vertex="1" parent="1">
          <mxGeometry x="1340" y="130" width="130" height="80" as="geometry" />
        </mxCell>
        <mxCell id="8XETLYv3vKkjpiccnSqC-19" value="&lt;font style=&quot;font-size: 18px;&quot;&gt;目标Y方向距离&lt;/font&gt;" style="ellipse;whiteSpace=wrap;html=1;" vertex="1" parent="1">
          <mxGeometry x="1340" y="260" width="130" height="80" as="geometry" />
        </mxCell>
        <mxCell id="8XETLYv3vKkjpiccnSqC-20" value="" style="endArrow=none;html=1;rounded=0;entryX=0;entryY=0.5;entryDx=0;entryDy=0;exitX=1;exitY=0.5;exitDx=0;exitDy=0;" edge="1" parent="1" source="8XETLYv3vKkjpiccnSqC-17" target="8XETLYv3vKkjpiccnSqC-18">
          <mxGeometry width="50" height="50" relative="1" as="geometry">
            <mxPoint x="1210" y="220" as="sourcePoint" />
            <mxPoint x="1260" y="170" as="targetPoint" />
          </mxGeometry>
        </mxCell>
        <mxCell id="8XETLYv3vKkjpiccnSqC-21" value="" style="endArrow=none;html=1;rounded=0;entryX=1;entryY=0.5;entryDx=0;entryDy=0;exitX=0;exitY=0.5;exitDx=0;exitDy=0;" edge="1" parent="1" source="8XETLYv3vKkjpiccnSqC-19" target="8XETLYv3vKkjpiccnSqC-17">
          <mxGeometry width="50" height="50" relative="1" as="geometry">
            <mxPoint x="1476" y="60" as="sourcePoint" />
            <mxPoint x="1260" y="170" as="targetPoint" />
          </mxGeometry>
        </mxCell>
      </root>
    </mxGraphModel>
  </diagram>
</mxfile>
